<svg width="24" height="24" viewBox="0 0 24 24" fill="none" xmlns="http://www.w3.org/2000/svg">
<path d="M23.3281 9.19014L15.9868 8.1189L12.7036 1.43838C12.4164 0.854015 11.5838 0.853733 11.2965 1.43838L8.01333 8.1189L0.672001 9.19014C0.0299538 9.28386 -0.227906 10.0788 0.237188 10.534L5.54939 15.7341L4.2953 23.0766C4.24477 23.3722 4.36575 23.6709 4.60744 23.8472C4.84903 24.0234 5.16928 24.0467 5.43366 23.9071L12 20.4405C19.1487 24.2146 18.6577 23.9977 18.9314 23.9977C19.4149 23.9977 19.7873 23.5599 19.7047 23.0766L18.4507 15.7341L23.7629 10.534C24.2275 10.0792 23.9707 9.28396 23.3281 9.19014Z" fill="#F7AC16"/>
<path d="M12 1C11.7008 1 11.4283 1.17084 11.2964 1.43922L8.01325 8.12019L0.671998 9.1915C0.0299536 9.28523 -0.227905 10.0802 0.237187 10.5355L5.54937 15.7359L4.29528 23.0789C4.24475 23.3745 4.36573 23.6732 4.60742 23.8495C4.84901 24.0258 5.16926 24.0491 5.43364 23.9095L12 20.4427H12V1Z" fill="#F2D422"/>
<path d="M0.658397 9.0793C0.0293474 9.17372 -0.223292 9.97464 0.232387 10.4332L5.43706 15.6722L4.20835 23.0697C4.15884 23.3675 4.27738 23.6684 4.51417 23.8461C4.75087 24.0236 5.06464 24.047 5.32366 23.9064L11.7571 20.4139C18.7611 24.2162 18.28 23.9977 18.5481 23.9977C18.7075 23.9977 18.8661 23.9465 19 23.8461L7.85107 8L0.658397 9.0793Z" fill="#F7AC16"/>
<path d="M8 13.9049C2.56114 8.38063 2.79492 8.6767 2.72194 8.3902C2.69223 8.27512 2.68614 8.14122 2.71844 8L0.642302 8.31433C0.0286299 8.40728 -0.217833 9.1957 0.226706 9.64715L5.30414 14.8044L4.10547 22.0865C4.05717 22.3797 4.17281 22.6759 4.40381 22.8508C4.63473 23.0256 4.94083 23.0486 5.19352 22.9102L7.03883 21.8993C6.849 21.7212 6.75751 21.453 6.80133 21.187L8 13.9049Z" fill="#F48B19"/>
<path d="M0.237704 9.79219L5.62716 14.8925L4.35483 22.0943C4.30356 22.3842 4.42631 22.6772 4.67151 22.8501C4.91662 23.023 5.24152 23.0458 5.50974 22.9089L12.1716 19.5088C19.4243 23.2105 18.9261 22.9977 19.2037 22.9977C19.6943 22.9977 20.0721 22.5684 19.9883 22.0943L18.716 14.8925L0.0362065 9C-0.0568619 9.32388 0.0363016 9.60169 0.237704 9.79219Z" fill="#F2D422"/>
<path d="M0.22402 9.79232L5.30321 14.8935L4.10412 22.0964C4.05581 22.3864 4.17148 22.6794 4.40257 22.8524C4.63357 23.0253 4.93977 23.0481 5.19255 22.9112L7.0385 21.9113C6.8486 21.7351 6.75708 21.4698 6.80092 21.2067L8 14.0038L4.5096 10.4983L0.0341221 9C-0.0535884 9.32394 0.0342117 9.60179 0.22402 9.79232Z" fill="#EFB616"/>
<path d="M4.0115 22.0943C3.96024 22.3842 4.08297 22.6772 4.32814 22.8501C4.57321 23.023 4.89808 23.0458 5.16626 22.9089L11.8272 19.5088C19.079 23.2105 18.5809 22.9977 18.8585 22.9977C19.349 22.9977 19.7267 22.5684 19.643 22.0943L18.3709 14.8925L23.7597 9.79215C23.9766 9.58683 24.0546 9.2797 23.9611 9L5.28367 14.8925L4.0115 22.0943Z" fill="#F7AC16"/>
<path d="M4.0111 22.097C3.96163 22.3868 4.08007 22.6796 4.31667 22.8525C4.55318 23.0253 4.8667 23.0481 5.12551 22.9113L7.01554 21.912C6.82111 21.7359 6.72741 21.4709 6.77228 21.2079L8 14.0098L7.98995 14L5.23881 14.8989L4.0111 22.097Z" fill="#F48B19"/>
<path d="M5.80954 23.9064L12.2429 20.4139C19.247 24.2162 18.7659 23.9977 19.034 23.9977C19.5078 23.9977 19.8726 23.5566 19.7917 23.0697L18.563 15.6722L23.7677 10.4332C24.2229 9.97493 23.9713 9.17378 23.3417 9.07926L16.149 8L5 23.8461C5.2367 24.0236 5.55047 24.047 5.80954 23.9064Z" fill="#F2D422"/>
<path d="M23.9624 9L12.243 12.8281L5 22.8501C5.23671 23.023 5.55047 23.0458 5.8095 22.9089L12.243 19.5088C19.247 23.2105 18.766 22.9977 19.0341 22.9977C19.5079 22.9977 19.8726 22.5684 19.7918 22.0943L18.5631 14.8925L23.7679 9.79219C23.9774 9.58683 24.0527 9.27975 23.9624 9Z" fill="#F7AC16"/>
<path d="M18.7436 15.0296L12.3393 13L5 22.8527C5.23985 23.0226 5.5578 23.045 5.82027 22.9104L12.3393 19.5678C19.4366 23.2069 18.9491 22.9978 19.2208 22.9978C19.7009 22.9978 20.0705 22.5757 19.9886 22.1096L18.7436 15.0296Z" fill="#F2D422"/>
<path d="M5 22.8527C5.2451 23.0226 5.57001 23.045 5.83823 22.9104L12.5 19.5678C19.7526 23.2069 19.2545 22.9978 19.5321 22.9978C19.6971 22.9978 19.8614 22.9488 20 22.8527L12.5 13L5 22.8527Z" fill="#F7AC16"/>
<path d="M12 13.0001L12 13L5 22.8549C5.22876 23.0249 5.53201 23.0473 5.78234 22.9127L12 19.5693H12V13.0001Z" fill="#F2D422"/>
<path d="M8 19L5 22.8557C5.2492 23.0247 5.57953 23.047 5.85222 22.9132L7.84363 21.9356C7.63877 21.7633 7.54004 21.504 7.58733 21.2467L8 19Z" fill="#EFB616"/>
</svg>
